<svg viewBox="0 0 22 22" fill="none" width="32" height="32" xmlns="http://www.w3.org/2000/svg" xmlns:xlink="http://www.w3.org/1999/xlink">
    <path fill="currentColor" clip-rule="evenodd" d="M14.7051 19.1123c0.3744-0.1768 0.8211-0.0169 0.9981 0.3574 0.1768 0.3743 0.0166 0.8209-0.3574 0.9981-2.5724 1.2164-5.5227 1.3639-8.2032 0.4092-0.3901-0.1391-0.5931-0.5689-0.4541-0.959 0.1393-0.3898 0.5681-0.5931 0.958-0.4541 2.3065 0.8214 4.8453 0.6951 7.0586-0.3516zM1.2813 14.0625c0.3799-0.1651 0.8212 88e-4 0.9863 0.3887 0.5194 1.1948 1.2858 2.2662 2.2481 3.1445 0.3058 0.2791 0.3277 0.7536 0.0488 1.0596-0.2791 0.3058-0.7536 0.3278-1.0596 0.0488-1.1184-1.0208-2.0087-2.2666-2.6123-3.6553-0.1651-0.3799 88e-4-0.8212 0.3887-0.9863zM10.7501 0c2.0855-4e-4 4.126 0.6061 5.873 1.7451 1.7471 1.1392 3.1249 2.7623 3.9658 4.6709 0.8409 1.9085 1.1089 4.0202 0.7705 6.0781s-1.2681 3.973-2.6757 5.5118c-0.2795 0.3054-0.754 0.3271-1.0596 0.0478-0.3054-0.2794-0.327-0.7539-0.0479-1.0596 1.2114-1.324 2.0116-2.9723 2.3028-4.7431s0.0614-3.5882-0.6621-5.2305c-0.7236-1.6423-1.9098-3.0383-3.4131-4.0185-1.5033-0.9802-3.2592-1.5023-5.0537-1.502-0.4142 0-0.75-0.3358-0.75-0.75 0-0.4141 0.3358-0.7499 0.75-0.75zM10.7501 6c0.4142 0 0.75 0.3358 0.75 0.75V10h3.25c0.4142 0 0.75 0.3358 0.75 0.75s-0.3358 0.75-0.75 0.75h-3.25v3.25c0 0.4142-0.3358 0.75-0.75 0.75s-0.75-0.3358-0.75-0.75V11.5h-3.25c-0.4142 0-0.75-0.3358-0.75-0.75 0-0.4142 0.3358-0.75 0.75-0.75h3.25V6.75c0-0.4142 0.3358-0.75 0.75-0.75zM0.5372 7.3906C0.6666 6.9972 1.091 6.7828 1.4844 6.9121 1.8779 7.0415 2.0923 7.4659 1.963 7.8594c-0.2948 0.896-0.4512 1.8322-0.4629 2.7754-54e-4 0.414-0.3458 0.7454-0.7598 0.7402-0.414-54e-4-0.7454-0.3457-0.7402-0.7598 0.0137-1.0959 0.1946-2.1834 0.5371-3.2246zM3.7911 2.5566c0.3156-0.268 0.7894-0.2296 1.0576 0.086 0.2678 0.3156 0.2293 0.7885-0.086 1.0566-0.2906 0.2469-0.5662 0.5122-0.8242 0.793C3.6583 4.7971 3.183 4.8173 2.878 4.5371 2.5736 4.2569 2.5533 3.7824 2.8331 3.4775c0.2998-0.3264 0.6202-0.6339 0.958-0.9209z" fill-rule="evenodd" />
</svg>