<svg viewBox="0 0 16 16" fill="none" width="32" height="32" xmlns="http://www.w3.org/2000/svg" xmlns:xlink="http://www.w3.org/1999/xlink">
    <path fill="currentColor" clip-rule="evenodd" d="M7.2197 0.2197c0.2929-0.2929 0.7677-0.2929 1.0606 0 0.2928 0.2929 0.2929 0.7676 0 1.0605L2.5606 6.9999l12.1894 0c0.4142 0 0.75 0.3358 0.75 0.75 0 0.4142-0.3358 0.75-0.75 0.75l-12.1895 0 5.7198 5.7198c0.2928 0.2929 0.2929 0.7676 0 1.0605-0.2929 0.2929-0.7677 0.2929-1.0606 0l-7-7c-0.032-0.032-0.0599-0.0666-0.0849-0.1025C0.104 8.1336 0.0774 8.0864 0.0566 8.0361 0.0359 7.9858 0.0211 7.9337 0.0117 7.8808 42e-4 7.8383 0 7.7946 0 7.7499 0 7.7046 4e-3 7.6602 0.0117 7.6171c91e-4-0.0508 0.0234-0.101 0.043-0.1494l39e-4-98e-4c0.0116-0.0273 0.0274-0.0525 0.042-0.0781C0.133 7.323 0.1712 7.2682 0.2197 7.2197z" fill-rule="evenodd" />
</svg>