<svg viewBox="0 0 20 22" fill="none" width="29.090909" height="32" xmlns="http://www.w3.org/2000/svg" xmlns:xlink="http://www.w3.org/1999/xlink">
    <path fill="currentColor" clip-rule="evenodd" d="M13.75 0c0.4142 0 0.75 0.3358 0.75 0.75V2h2.25c1.5188 0 2.75 1.2312 2.75 2.75v14c0 1.5188-1.2312 2.75-2.75 2.75h-14C1.2312 21.5 0 20.2688 0 18.75v-14C0 3.2312 1.2312 2 2.75 2H5V0.75C5 0.3358 5.3358 0 5.75 0S6.5 0.3358 6.5 0.75V2H13V0.75C13 0.3358 13.3358 0 13.75 0zM1.5 9.5v9.25C1.5 19.4404 2.0596 20 2.75 20h14c0.6904 0 1.25-0.5596 1.25-1.25V9.5zM2.75 3.5C2.0596 3.5 1.5 4.0596 1.5 4.75V8H18V4.75c0-0.6904-0.5596-1.25-1.25-1.25H14.5v1.25c0 0.4142-0.3358 0.75-0.75 0.75S13 5.1642 13 4.75V3.5H6.5v1.25c0 0.4142-0.3358 0.75-0.75 0.75S5 5.1642 5 4.75V3.5z" fill-rule="evenodd" />
</svg>