<svg viewBox="0 0 22 18" fill="currentColor" width="39.111111" height="32" xmlns="http://www.w3.org/2000/svg" xmlns:xlink="http://www.w3.org/1999/xlink">
    <path d="M20 5.75c0-0.3315-0.1318-0.6494-0.3662-0.8838C19.3994 4.6318 19.0815 4.5 18.75 4.5h-1.9971c-0.496 0-0.9831-0.1345-1.4091-0.3887-0.4258-0.2541-0.7752-0.6184-1.0108-1.0547l-0.4863-0.9003c-0.1071-0.1983-0.2655-0.364-0.459-0.4795C13.1941 1.5612 12.9725 1.5 12.7471 1.5H8.7539c-0.2251 0-0.4462 0.0606-0.6396 0.1758-0.1936 0.1153-0.3528 0.2814-0.46 0.4795L7.166 3.0586c-0.2359 0.4358-0.586 0.8-1.0117 1.0537C5.7286 4.3659 5.2425 4.5 4.7471 4.5H2.75c-0.3315 0-0.6494 0.1318-0.8838 0.3662C1.6318 5.1006 1.5 5.4185 1.5 5.75v9c0 0.3315 0.1318 0.6494 0.3662 0.8838C2.1006 15.8682 2.4185 16 2.75 16h16c0.3315 0 0.6494-0.1318 0.8838-0.3662S20 15.0815 20 14.75zM21.5 14.75c0 0.7293-0.2899 1.4286-0.8057 1.9443C20.1786 17.2101 19.4793 17.5 18.75 17.5h-16c-0.7294 0-1.4286-0.2899-1.9443-0.8057C0.2899 16.1786 0 15.4793 0 14.75v-9c0-0.7294 0.2899-1.4286 0.8057-1.9443C1.3214 3.2899 2.0207 3 2.75 3h1.9971c0.2251 0 0.4462-0.0606 0.6396-0.1758 0.1935-0.1153 0.3528-0.2814 0.46-0.4795L6.335 1.4414c0.2359-0.4358 0.5859-0.8 1.0117-1.0537C7.7723 0.1341 8.2584 0 8.7539 0h3.9932c0.496 0 0.9831 0.1345 1.4091 0.3887 0.4258 0.2541 0.7752 0.6184 1.0108 1.0547l0.4863 0.9004c0.1071 0.1982 0.2655 0.364 0.459 0.4794C16.3059 2.9388 16.5275 3 16.7529 3H18.75c0.7293 0 1.4286 0.2899 1.9443 0.8057C21.2101 4.3214 21.5 5.0207 21.5 5.75z" />
    <path d="M13 9.75c0-1.2426-1.0074-2.25-2.25-2.25-1.2426 0-2.25 1.0074-2.25 2.25 0 1.2426 1.0074 2.25 2.25 2.25 1.2426 0 2.25-1.0074 2.25-2.25zM14.5 9.75c0 2.0711-1.6789 3.75-3.75 3.75C8.6789 13.5 7 11.8211 7 9.75 7 7.6789 8.6789 6 10.75 6c2.0711 0 3.75 1.6789 3.75 3.75z" />
</svg>