<svg viewBox="0 0 22 22" fill="none" width="32" height="32" xmlns="http://www.w3.org/2000/svg" xmlns:xlink="http://www.w3.org/1999/xlink">
    <path fill="currentColor" d="M6.7002 17.9502c0.9665 0 1.75 0.7835 1.75 1.75-1e-4 0.9664-0.7836 1.75-1.75 1.75-0.9664 0-1.7499-0.7836-1.75-1.75 0-0.9665 0.7835-1.75 1.75-1.75zM17.7002 17.9502c0.9665 0 1.75 0.7835 1.75 1.75-1e-4 0.9664-0.7836 1.75-1.75 1.75s-1.7499-0.7836-1.75-1.75c0-0.9665 0.7835-1.75 1.75-1.75zM2.75 0c0.3536 0 0.6593 0.247 0.7334 0.5928L4.4277 5H20.79c0.2274 0 0.4427 0.103 0.585 0.2803 0.1422 0.1773 0.1966 0.4099 0.1475 0.6318l-1.6504 7.4307-1e-3-1e-3c-0.1347 0.6109-0.4727 1.1575-0.96 1.5498-0.4874 0.3925-1.0939 0.6073-1.7197 0.6084H7.4102l0-1e-3c-0.6337 0.0103-1.2515-0.1978-1.7491-0.5908-0.4391-0.3469-0.7604-0.8182-0.9238-1.3496l-0.0605-0.2315-1.5879-7.413c-24e-4-0.0107-49e-4-0.0214-69e-4-0.0323L2.1436 1.5H0.75C0.3358 1.5 0 1.1642 0 0.75S0.3358 0 0.75 0zM6.1436 13.0127l0.0273 0.1055c0.0743 0.2414 0.2204 0.4556 0.4199 0.6132C6.8189 13.9116 7.1029 14.0065 7.3936 14h9.7949c0.2845-5e-4 0.5606-0.098 0.7822-0.2764s0.3754-0.4272 0.4365-0.705l1e-3-1e-3L19.8555 6.5H4.749z" />
</svg>