<svg viewBox="0 0 22 22" fill="none" width="32" height="32" xmlns="http://www.w3.org/2000/svg" xmlns:xlink="http://www.w3.org/1999/xlink">
    <path fill="currentColor" clip-rule="evenodd" d="M4.5008 2.0027c2.0615-1.4726 4.5771-2.1699 7.1025-1.9687 2.5255 0.2012 4.8989 1.2879 6.7012 3.0683 1.8023 1.7805 2.9184 4.1403 3.1504 6.6631 0.232 2.5228-0.4346 5.0467-1.8818 7.126-1.4474 2.0792-3.583 3.5808-6.0293 4.2392-2.4322 0.6546-5.0162 0.4328-7.3018-0.623-0.2103-0.0777-0.4378-0.0969-0.6582-0.0567l-3.3672 0.9854c-58e-4 17e-4-0.0118 33e-4-0.0176 49e-4-0.288 0.0764-0.591 0.0782-0.8799 49e-4-0.2888-0.0735-0.5548-0.2192-0.7714-0.4239-0.2167-0.2047-0.3772-0.4618-0.4668-0.7461-0.0897-0.2843-0.105-0.5869-0.045-0.8789 56e-4-0.0269 0.0131-0.0539 0.0215-0.08l1.0489-3.2432c0.047-0.2348 0.0268-0.478-0.0606-0.7012-1.0822-2.2716-1.3344-4.8514-0.71-7.29 0.6286-2.4541 2.1038-4.6075 4.1651-6.0801zM11.4842 1.5291C9.3112 1.356 7.1467 1.9563 5.3729 3.2234 3.5992 4.4905 2.3297 6.3432 1.7889 8.4549c-0.5408 2.1116-0.3184 4.3468 0.6279 6.3105 78e-4 0.0161 0.0149 0.0332 0.0215 0.0498 0.2021 0.51 0.2478 1.0687 0.1299 1.6045-52e-4 0.0234-0.0122 0.0465-0.0196 0.0693l-1.0459 3.2295c-45e-4 0.0357-2e-3 0.072 88e-4 0.1065 0.0128 0.0404 0.0356 0.0772 0.0664 0.1064 0.0309 0.0292 0.0692 0.0501 0.1104 0.0606 0.04 0.0101 0.082 99e-4 0.1221 0l3.3984-0.9932 0.0644-0.0156c0.4425-0.0878 0.8992-0.0652 1.3292 0.0644l0.1826 0.0615 0.0507 0.0215c1.9753 0.9224 4.2134 1.1183 6.3184 0.5518 2.1049-0.5666 3.9421-1.8594 5.1875-3.6484 1.2452-1.7891 1.8187-3.9603 1.6192-6.1309-0.1997-2.1706-1.1594-4.2014-2.71-5.7334-1.5509-1.532-3.5936-2.4675-5.7666-2.6406zM6.7586 9.7498c0.5523 0 1 0.4477 1 1-1e-4 0.5521-0.4478 1-1 1h-98e-4c-0.5519-3e-4-0.9998-0.448-1-1 0-0.5522 0.448-0.9998 1-1zM10.7586 9.7498c0.5523 0 1 0.4477 1 1-1e-4 0.5521-0.4478 1-1 1h-98e-4c-0.5519-3e-4-0.9998-0.448-1-1 0-0.5522 0.448-0.9998 1-1zM14.7586 9.7498c0.5523 0 1 0.4477 1 1-1e-4 0.5521-0.4478 1-1 1h-98e-4c-0.5519-3e-4-0.9998-0.448-1-1 0-0.5522 0.448-0.9998 1-1z" fill-rule="evenodd" />
</svg>