<svg viewBox="0 0 14 14" fill="none" width="32" height="32" xmlns="http://www.w3.org/2000/svg" xmlns:xlink="http://www.w3.org/1999/xlink">
    <path fill="currentColor" clip-rule="evenodd" d="M12.2197 0.2197c0.2929-0.2929 0.7676-0.2929 1.0605 0 0.2929 0.2929 0.2929 0.7676 0 1.0605L7.8105 6.7499l5.4697 5.4698c0.2929 0.2929 0.2929 0.7676 0 1.0605s-0.7676 0.2929-1.0605 0L6.7499 7.8105 1.2802 13.2802c-0.2929 0.2929-0.7676 0.2929-1.0605 0-0.2929-0.2929-0.2929-0.7676 0-1.0605l5.4697-5.4698-5.4697-5.4697c-0.2929-0.2929-0.2929-0.7676 0-1.0605 0.2929-0.2929 0.7676-0.2929 1.0605 0l5.4697 5.4697z" fill-rule="evenodd" />
</svg>