<svg viewBox="0 0 20 20" fill="none" width="32" height="32" xmlns="http://www.w3.org/2000/svg" xmlns:xlink="http://www.w3.org/1999/xlink">
    <path fill="currentColor" d="M18.75 12c0.4142 0 0.75 0.3358 0.75 0.75v4c0 0.7293-0.2899 1.4286-0.8057 1.9443C18.1786 19.2101 17.4793 19.5 16.75 19.5h-14c-0.7294 0-1.4286-0.2899-1.9443-0.8057C0.2899 18.1786 0 17.4793 0 16.75v-4C0 12.3358 0.3358 12 0.75 12s0.75 0.3358 0.75 0.75v4c0 0.3315 0.1318 0.6494 0.3662 0.8838C2.1006 17.8682 2.4185 18 2.75 18h14c0.3315 0 0.6494-0.1318 0.8838-0.3662S18 17.0815 18 16.75v-4c0-0.4142 0.3358-0.75 0.75-0.75zM9.75 0c0.4142 0 0.75 0.3358 0.75 0.75v10.1895l3.7197-3.7198c0.2929-0.2929 0.7677-0.2929 1.0606 0 0.2929 0.2929 0.2929 0.7677 0 1.0606l-5 5c-0.0486 0.0486-0.1042 0.0857-0.1612 0.1181-0.0271 0.0155-0.0538 0.0319-0.083 0.044-0.032 0.0132-0.0653 0.0217-0.0986 0.0303-0.0131 34e-4-0.0257 9e-3-0.0391 0.0117-55e-4 11e-4-0.011 19e-4-0.0166 29e-4C9.839 13.4949 9.7951 13.5 9.75 13.5c-0.0454 0-0.0897-5e-3-0.1328-0.0127-56e-4-1e-3-0.0111-18e-4-0.0166-29e-4-0.0134-27e-4-0.026-83e-4-0.0391-0.0117-0.0332-87e-4-0.0666-0.017-0.0986-0.0303-0.0292-0.0121-0.0559-0.0284-0.083-0.044-0.0567-0.0324-0.1118-0.0697-0.1602-0.1181l-5-5c-0.2929-0.2929-0.2929-0.7677 0-1.0606 0.2929-0.2929 0.7677-0.2929 1.0606 0L9 10.9395V0.75C9 0.3358 9.3358 0 9.75 0z" />
</svg>