<svg viewBox="0 0 22 16" fill="none" width="44" height="32" xmlns="http://www.w3.org/2000/svg" xmlns:xlink="http://www.w3.org/1999/xlink">
    <path fill="currentColor" clip-rule="evenodd" d="M10.7509 0c2.2773 1e-4 4.503 0.6767 6.3955 1.9434 1.8925 1.2667 3.367 3.0665 4.2353 5.1718 34e-4 82e-4 67e-4 0.0172 98e-4 0.0254 0.1457 0.3928 0.1458 0.8251 0 1.2178-31e-4 83e-4-64e-4 0.0172-98e-4 0.0254-0.8683 2.1051-2.3428 3.9052-4.2353 5.1719-1.8925 1.2665-4.1184 1.9432-6.3955 1.9433-2.2773 0-4.5039-0.6768-6.3965-1.9433-1.8925-1.2666-3.367-3.0668-4.2353-5.1719-34e-4-82e-4-67e-4-0.0171-98e-4-0.0254-0.1458-0.3927-0.1457-0.825 0-1.2178l98e-4-0.0254c0.8683-2.1053 2.3427-3.9051 4.2353-5.1718C6.2471 0.6766 8.4734 0 10.7509 0zM10.7509 1.5c-1.9804 0-3.9167 0.588-5.5625 1.6895C3.5481 4.2873 2.2686 5.846 1.5126 7.669 1.495 7.7211 1.4958 7.778 1.5136 7.8301c0.7561 1.8226 2.0347 3.3818 3.6748 4.4795 1.6457 1.1013 3.5822 1.6894 5.5625 1.6894 1.9801-1e-4 3.9159-0.5882 5.5615-1.6894 1.64-1.0977 2.9177-2.657 3.6738-4.4795 0.018-0.0523 0.0187-0.1088 1e-3-0.1612-0.756-1.8228-2.0346-3.3816-3.6748-4.4794-1.6456-1.1014-3.5813-1.6894-5.5615-1.6895zM10.7499 3.999c2.0711 0 3.75 1.679 3.75 3.75 0 2.0711-1.6789 3.75-3.75 3.75-2.0708-2e-4-3.75-1.6791-3.75-3.75 0-2.0709 1.6792-3.7497 3.75-3.75zM10.7499 5.499c-1.2424 3e-4-2.25 1.0075-2.25 2.25 0 1.2425 1.0076 2.2498 2.25 2.25 1.2427 0 2.25-1.0073 2.25-2.25 0-1.2426-1.0073-2.25-2.25-2.25z" fill-rule="evenodd" />
</svg>