<svg viewBox="0 0 22 12" fill="none" width="58.666667" height="32" xmlns="http://www.w3.org/2000/svg" xmlns:xlink="http://www.w3.org/1999/xlink">
    <path fill="currentColor" clip-rule="evenodd" d="M20.0456 0.4929c0.1419-0.389 0.5719-0.589 0.9609-0.4473 0.3891 0.142 0.5892 0.5719 0.4473 0.961-0.6832 1.8718-1.8445 3.5236-3.3584 4.8008l1.2285 1.4589c0.2665 0.3168 0.2258 0.79-0.0908 1.0567-0.3168 0.2666-0.7899 0.2258-1.0567-0.0908l-1.29-1.5323c-0.9243 0.5908-1.9249 1.0414-2.9697 1.3438l0.5654 2.543c0.0896 0.4042-0.1651 0.8056-0.5693 0.8955-0.404 0.0896-0.8044-0.1656-0.8946-0.5694L12.4518 8.366c-0.5609 0.0847-1.1299 0.1298-1.7021 0.1298-0.5727 0-1.1418-0.0449-1.7032-0.1298l-0.5644 2.5468c-0.0902 0.4039-0.4914 0.6591-0.8955 0.5694-0.4038-0.0901-0.6588-0.4916-0.5693-0.8955l0.5644-2.543C6.5373 7.7412 5.5369 7.2906 4.613 6.6999L3.3229 8.2322C3.0561 8.5487 2.583 8.5897 2.2663 8.323 1.9499 8.0561 1.9098 7.583 2.1764 7.2664l1.2266-1.459C1.8896 4.5302 0.7285 2.878 0.0456 1.0066c-0.1419-0.3889 0.0585-0.8188 0.4472-0.961 0.3891-0.1419 0.819 0.0582 0.961 0.4473 0.6956 1.9061 1.9614 3.5527 3.624 4.7158 1.6626 1.163 3.6429 1.787 5.6719 1.7871 2.0289 0 4.0093-0.6242 5.6719-1.7871 1.6625-1.1631 2.9283-2.8098 3.624-4.7158z" fill-rule="evenodd" />
</svg>