<svg viewBox="0 0 13 22" fill="none" width="18.909091" height="32" xmlns="http://www.w3.org/2000/svg" xmlns:xlink="http://www.w3.org/1999/xlink">
    <path fill="currentColor" d="M11.75 0c0.4142 0 0.75 0.3358 0.75 0.75v4c0 0.4142-0.3358 0.75-0.75 0.75h-3c-0.0663 0-0.1299 0.0264-0.1768 0.0732C8.5264 5.6201 8.5 5.6837 8.5 5.75V8h3.25c0.2308 0 0.4487 0.1063 0.5908 0.2881 0.1421 0.182 0.1927 0.4195 0.1367 0.6435l-1 4C11.3941 13.2655 11.0942 13.5 10.75 13.5H8.5v7.25c0 0.4142-0.3358 0.75-0.75 0.75h-4C3.3358 21.5 3 21.1642 3 20.75V13.5H0.75C0.3358 13.5 0 13.1642 0 12.75v-4C0 8.3358 0.3358 8 0.75 8H3V5.75c0-1.525 0.6062-2.9871 1.6846-4.0654C5.7629 0.6062 7.225 0 8.75 0zM8.75 1.5c-1.1272 0-2.2078 0.4481-3.0049 1.2451C4.9481 3.5422 4.5 4.6228 4.5 5.75v3c0 0.4142-0.3358 0.75-0.75 0.75H1.5V12h2.25c0.4142 0 0.75 0.3358 0.75 0.75V20H7v-7.25C7 12.3358 7.3358 12 7.75 12h2.415l0.625-2.5H7.75C7.3358 9.5 7 9.1642 7 8.75v-3c0-0.4641 0.1845-0.9091 0.5127-1.2373C7.8409 4.1845 8.2859 4 8.75 4H11V1.5z" />
</svg>