<svg viewBox="0 0 14 21" fill="none" width="21.333333" height="32" xmlns="http://www.w3.org/2000/svg" xmlns:xlink="http://www.w3.org/1999/xlink">
    <path fill="currentColor" d="M6.75 0c3.7279 0 6.75 3.0221 6.75 6.75 0 3.4743-2.6251 6.3339-6 6.707V16h2.25c0.4142 0 0.75 0.3358 0.75 0.75s-0.3358 0.75-0.75 0.75H7.5v2.25c0 0.4142-0.3358 0.75-0.75 0.75S6 20.1642 6 19.75V17.5H3.75C3.3358 17.5 3 17.1642 3 16.75S3.3358 16 3.75 16H6v-2.543c-3.3749-0.3731-6-3.2327-6-6.707C0 3.0221 3.0221 0 6.75 0zM6.75 1.5C3.8505 1.5 1.5 3.8505 1.5 6.75S3.8505 12 6.75 12 12 9.6495 12 6.75 9.6495 1.5 6.75 1.5z" />
</svg>