<svg viewBox="0 0 18 22" fill="none" width="26.181818" height="32" xmlns="http://www.w3.org/2000/svg" xmlns:xlink="http://www.w3.org/1999/xlink">
    <path fill="currentColor" clip-rule="evenodd" d="M10.75 0c0.4151-5e-4 0.8265 0.0814 1.21 0.2402 0.3832 0.1589 0.7314 0.3918 1.0244 0.6856l3.5859 3.5859c0.2951 0.2934 0.53 0.643 0.6895 1.0274C17.419 5.9229 17.5005 6.3345 17.5 6.75v12c0 0.7293-0.2899 1.4286-0.8057 1.9443C16.1786 21.2101 15.4793 21.5 14.75 21.5h-12c-0.7294 0-1.4286-0.2899-1.9443-0.8057C0.2899 20.1786 0 19.4793 0 18.75v-16c0-0.7293 0.2899-1.4286 0.8057-1.9443C1.3214 0.2899 2.0207 0 2.75 0zM2.75 1.5c-0.3315 0-0.6494 0.1318-0.8838 0.3662C1.6318 2.1006 1.5 2.4185 1.5 2.75v16c0 0.3315 0.1318 0.6494 0.3662 0.8838C2.1006 19.8682 2.4185 20 2.75 20h12c0.3315 0 0.6494-0.1318 0.8838-0.3662S16 19.0815 16 18.75V7.5h-4.25c-0.4641 0-0.9091-0.1845-1.2373-0.5127C10.1845 6.6591 10 6.2141 10 5.75V1.5zM11.5 5.75c0 0.0663 0.0264 0.1299 0.0732 0.1768C11.6201 5.9736 11.6837 6 11.75 6h4.0703c-0.0793-0.1563-0.182-0.2999-0.3066-0.4238l-3.5908-3.5908c-0.1238-0.1242-0.267-0.2267-0.4229-0.3057z" fill-rule="evenodd" />
</svg>