<svg viewBox="0 0 22 22" fill="none" width="32" height="32" xmlns="http://www.w3.org/2000/svg" xmlns:xlink="http://www.w3.org/1999/xlink">
    <path fill="currentColor" d="M10.75 0c0.4142 0 0.75 0.3358 0.75 0.75v2.2861C15.1814 3.3897 18.1093 6.3186 18.4629 10H20.75c0.4142 0 0.75 0.3358 0.75 0.75s-0.3358 0.75-0.75 0.75h-2.2871c-0.3536 3.6814-3.2815 6.6093-6.9629 6.9629V20.75c0 0.4142-0.3358 0.75-0.75 0.75S10 21.1642 10 20.75v-2.2871C6.3186 18.1093 3.3907 15.1814 3.0371 11.5H0.75C0.3358 11.5 0 11.1642 0 10.75S0.3358 10 0.75 10h2.2871C3.3907 6.3186 6.3186 3.3897 10 3.0361V0.75C10 0.3358 10.3358 0 10.75 0zM10.75 4.5c-3.4518 0-6.25 2.7982-6.25 6.25 0 3.4518 2.7982 6.25 6.25 6.25 3.4518 0 6.25-2.7982 6.25-6.25 0-3.4518-2.7982-6.25-6.25-6.25zM10.75 7c2.0711 0 3.75 1.6789 3.75 3.75 0 2.0711-1.6789 3.75-3.75 3.75C8.6789 14.5 7 12.8211 7 10.75 7 8.6789 8.6789 7 10.75 7z" />
</svg>