<svg viewBox="0 0 22 22" fill="none" width="32" height="32" xmlns="http://www.w3.org/2000/svg" xmlns:xlink="http://www.w3.org/1999/xlink">
    <path fill="currentColor" d="M10.75 0C16.6871 0 21.5 4.8129 21.5 10.75c0 5.9371-4.8129 10.75-10.75 10.75C4.8129 21.5 0 16.6871 0 10.75 0 4.8129 4.8129 0 10.75 0zM10.75 1.5c-5.1086 0-9.25 4.1414-9.25 9.25 0 5.1086 4.1414 9.25 9.25 9.25 5.1086 0 9.25-4.1414 9.25-9.25 0-5.1086-4.1414-9.25-9.25-9.25zM6.2998 12.1504c0.3309-0.2482 0.8-0.1817 1.0488 0.1484 9e-4 12e-4 33e-4 33e-4 69e-4 78e-4 73e-4 93e-4 0.02 0.0254 0.0381 0.0469 0.0363 0.0433 0.0935 0.1097 0.1708 0.1904 0.1555 0.1622 0.3886 0.3808 0.6895 0.5997C8.8586 13.5833 9.7068 14 10.75 14c1.0432 0 1.8914-0.4167 2.4961-0.8564 0.3009-0.2189 0.5341-0.4375 0.6894-0.5997 0.0774-0.0807 0.1346-0.1471 0.1709-0.1904 0.0181-0.0215 0.0308-0.0376 0.0381-0.0469l59e-4-78e-4 0.0488-0.0576c0.2577-0.2796 0.6903-0.3238 1.001-0.0908 0.3105 0.2331 0.3888 0.6608 0.1924 0.9863l-0.043 0.0635-39e-4 49e-4c-16e-4 21e-4-35e-4 48e-4-59e-4 78e-4-49e-4 64e-4-0.0116 0.0154-0.0195 0.0254-0.0158 0.0199-0.0378 0.0472-0.0654 0.0801-0.0555 0.066-0.1352 0.1561-0.2373 0.2627-0.204 0.2128-0.5022 0.4942-0.8887 0.7753C13.3586 14.9167 12.2066 15.5 10.75 15.5c-1.4566 0-2.6086-0.5833-3.3789-1.1436-0.3865-0.2811-0.6847-0.5625-0.8887-0.7753-0.1021-0.1066-0.1818-0.1967-0.2373-0.2627-0.0276-0.0329-0.0496-0.0602-0.0654-0.0801-79e-4-0.01-0.0146-0.019-0.0195-0.0254-24e-4-3e-3-43e-4-57e-4-59e-4-78e-4l-39e-4-39e-4c-0.2485-0.3313-0.1817-0.8022 0.1494-1.0508zM7.7598 6.75c0.5522 0 1 0.4477 1 1 0 0.5523-0.4478 1-1 1H7.75c-0.5523 0-1-0.4477-1-1s0.4477-1 1-1zM13.7598 6.75c0.5523 0 1 0.4477 1 1s-0.4477 1-1 1H13.75c-0.5523 0-1-0.4477-1-1s0.4477-1 1-1z" />
</svg>