<svg viewBox="0 0 20 21" fill="none" width="30.47619" height="32" xmlns="http://www.w3.org/2000/svg" xmlns:xlink="http://www.w3.org/1999/xlink">
    <path fill="currentColor" clip-rule="evenodd" d="M9.75 0c0.5686 0 1.1213 0.1769 1.583 0.502l0.1924 0.1484 39e-4 39e-4 6.9951 5.9961c0.3054 0.2582 0.5514 0.5806 0.7197 0.9433C19.4123 7.9563 19.5 8.3513 19.5 8.751v9c-1e-4 0.7291-0.2901 1.4297-0.8057 1.9453-0.5156 0.5154-1.2152 0.8047-1.9443 0.8047h-14c-0.7291 0-1.4287-0.2893-1.9443-0.8047C0.2901 19.1807 1e-4 18.4801 0 17.751v-9c0-0.3997 0.0877-0.7947 0.2559-1.1573 0.1683-0.3627 0.4133-0.6851 0.7187-0.9433l6.9961-5.9961 39e-4-39e-4C8.471 0.2309 9.1001 0 9.75 0zM9.75 1.501c-0.2937 0-0.5787 0.1024-0.8037 0.291l-6.999 6.001-39e-4 29e-4c-0.1387 0.1173-0.2507 0.264-0.3272 0.4287C1.5398 8.3894 1.5 8.5694 1.5 8.751v9c1e-4 0.3313 0.1319 0.6504 0.3662 0.8847 0.2344 0.2342 0.5525 0.3653 0.8838 0.3653h14c0.3313 0 0.6494-0.1311 0.8838-0.3653 0.2343-0.2343 0.3661-0.5534 0.3662-0.8847v-9c0-0.1816-0.0398-0.3617-0.1162-0.5264-0.0765-0.1647-0.1885-0.3114-0.3272-0.4287l-39e-4-29e-4-7-6C10.3278 1.6047 10.0434 1.501 9.75 1.501zM12.75 15.001c0.4142 0 0.75 0.3358 0.75 0.75s-0.3358 0.75-0.75 0.75h-6c-0.4142 0-0.75-0.3358-0.75-0.75s0.3358-0.75 0.75-0.75z" fill-rule="evenodd" />
</svg>