<svg viewBox="0 0 20 21" fill="none" width="30.47619" height="32" xmlns="http://www.w3.org/2000/svg" xmlns:xlink="http://www.w3.org/1999/xlink">
    <path fill="currentColor" d="M14.75 13.5c0.4142 0 0.75 0.3358 0.75 0.75v3.6895l1.7197-1.7198c0.2929-0.2929 0.7677-0.2929 1.0606 0s0.2929 0.7677 0 1.0606l-3 3c-0.0128 0.0128-0.0266 0.0244-0.0401 0.0361-55e-4 48e-4-0.0108 0.01-0.0166 0.0147-0.0219 0.0179-0.045 0.0337-0.0683 0.0488-0.0373 0.024-0.0763 0.0461-0.1182 0.0635-12e-4 5e-4-27e-4 4e-4-39e-4 9e-4-37e-4 15e-4-8e-3 15e-4-0.0117 3e-3-0.0383 0.0149-0.0769 0.0268-0.1162 0.0351-0.0107 23e-4-0.0215 31e-4-0.0323 49e-4-0.0342 57e-4-0.0682 89e-4-0.1025 98e-4-0.0117 3e-4-0.0234 12e-4-0.0351 9e-4-0.0369-7e-4-0.0732-46e-4-0.1094-0.0107-91e-4-15e-4-0.0183-2e-3-0.0274-39e-4-0.0396-82e-4-0.0783-0.0197-0.1162-0.0342-0.0143-54e-4-0.028-0.0122-0.042-0.0185-0.0274-0.0125-0.0541-0.0262-0.08-0.042-0.0159-97e-4-0.0317-0.0194-0.0469-0.0303-53e-4-38e-4-0.0104-78e-4-0.0156-0.0117-0.0269-0.0205-0.0536-0.0419-0.0782-0.0664l-3-3c-0.2929-0.2929-0.2929-0.7677 0-1.0606s0.7677-0.2929 1.0606 0L14 17.9395V14.25c0-0.4142 0.3358-0.75 0.75-0.75zM16.75 0c0.7293 0 1.4286 0.2899 1.9443 0.8057C19.2101 1.3214 19.5 2.0207 19.5 2.75v10c0 0.3033-0.1826 0.5773-0.4629 0.6934-0.2802 0.116-0.6029 0.0514-0.8174-0.1631l-3.0947-3.0948c-0.2351-0.2304-0.5517-0.3589-0.8809-0.3574-0.2883 15e-4-0.5661 0.1028-0.7871 0.2842l-0.0908 0.082L5.5606 18h2.4892c0.4142 0 0.75 0.3358 0.75 0.75s-0.3358 0.75-0.75 0.75H2.75c-0.7294 0-1.4286-0.2899-1.9443-0.8057C0.2899 18.1786 0 17.4793 0 16.75v-14c0-0.7294 0.2899-1.4286 0.8057-1.9443C1.3214 0.2899 2.0207 0 2.75 0zM2.75 1.5c-0.3315 0-0.6494 0.1318-0.8838 0.3662C1.6318 2.1006 1.5 2.4185 1.5 2.75v14c0 0.3315 0.1318 0.6494 0.3662 0.8838C2.1006 17.8682 2.4185 18 2.75 18h0.6894l8.8663-8.8662c0.5123-0.5122 1.2062-0.802 1.9306-0.8057 0.7245-36e-4 1.4211 0.2791 1.9385 0.7862L18 10.9395V2.75c0-0.3315-0.1318-0.6494-0.3662-0.8838C17.3994 1.6318 17.0815 1.5 16.75 1.5zM6.75 4C8.2688 4 9.5 5.2312 9.5 6.75S8.2688 9.5 6.75 9.5 4 8.2688 4 6.75 5.2312 4 6.75 4zM6.75 5.5C6.0596 5.5 5.5 6.0596 5.5 6.75S6.0596 8 6.75 8 8 7.4404 8 6.75 7.4404 5.5 6.75 5.5z" />
</svg>