<svg viewBox="0 0 22 22" fill="none" width="32" height="32" xmlns="http://www.w3.org/2000/svg" xmlns:xlink="http://www.w3.org/1999/xlink">
    <path fill="currentColor" d="M15.75 0c3.1756 0 5.75 2.5744 5.75 5.75v10c0 3.1756-2.5744 5.75-5.75 5.75h-10C2.5744 21.5 0 18.9256 0 15.75v-10C0 2.5744 2.5744 0 5.75 0zM5.75 1.5C3.4028 1.5 1.5 3.4028 1.5 5.75v10C1.5 18.0972 3.4028 20 5.75 20h10c2.3472 0 4.25-1.9028 4.25-4.25v-10c0-2.3472-1.9028-4.25-4.25-4.25zM8.6055 6.4912c0.8866-0.46 1.8957-0.6288 2.8838-0.4824 1.0081 0.1495 1.9414 0.6192 2.6621 1.3398 0.7206 0.7207 1.1903 1.654 1.3398 2.6621 0.1464 0.9881-0.0224 1.9972-0.4824 2.8838-0.4602 0.8867-1.1878 1.6066-2.0801 2.0557-0.8923 0.449-1.9043 0.605-2.8906 0.4463-0.9862-0.1588-1.8972-0.6247-2.6035-1.3311-0.7064-0.7063-1.1723-1.6173-1.3311-2.6035-0.1587-0.9863-27e-4-1.9983 0.4463-2.8906 0.4491-0.8923 1.169-1.6199 2.0557-2.0801zM11.2695 7.4922c-0.676-0.1002-1.367 0.0153-1.9736 0.3301-0.6065 0.3148-1.099 0.8134-1.4063 1.4238-0.307 0.6104-0.4142 1.3029-0.3056 1.9775 0.1087 0.6748 0.4279 1.298 0.9111 1.7813 0.4833 0.4832 1.1065 0.8024 1.7813 0.9111 0.6746 0.1086 1.3671 14e-4 1.9775-0.3056 0.6104-0.3073 1.109-0.7998 1.4238-1.4063 0.3148-0.6067 0.4303-1.2976 0.3301-1.9736-0.1023-0.6898-0.4239-1.3283-0.917-1.8213-0.493-0.4931-1.1315-0.8147-1.8213-0.917zM16.2598 4.25c0.5522 0 1 0.4477 1 1s-0.4478 1-1 1H16.25c-0.5523 0-1-0.4477-1-1s0.4477-1 1-1z" />
</svg>