<svg viewBox="0 0 20 20" fill="none" width="32" height="32" xmlns="http://www.w3.org/2000/svg" xmlns:xlink="http://www.w3.org/1999/xlink">
    <path fill="currentColor" d="M6.75 0C7.1642 0 7.5 0.3358 7.5 0.75S7.1642 1.5 6.75 1.5h-4c-0.3315 0-0.6494 0.1318-0.8838 0.3662C1.6318 2.1006 1.5 2.4185 1.5 2.75v14c0 0.3315 0.1318 0.6494 0.3662 0.8838C2.1006 17.8682 2.4185 18 2.75 18h4c0.4142 0 0.75 0.3358 0.75 0.75S7.1642 19.5 6.75 19.5h-4c-0.7294 0-1.4286-0.2899-1.9443-0.8057C0.2899 18.1786 0 17.4793 0 16.75v-14c0-0.7294 0.2899-1.4286 0.8057-1.9443C1.3214 0.2899 2.0207 0 2.75 0zM13.2197 4.2197c0.2929-0.2929 0.7677-0.2929 1.0606 0l5 5c0.0484 0.0484 0.0857 0.1035 0.1181 0.1602 0.0156 0.0271 0.0319 0.0539 0.044 0.083 0.0207 0.05 0.0355 0.1017 0.0449 0.1543C19.495 9.6604 19.5 9.7046 19.5 9.75c0 0.045-51e-4 0.089-0.0127 0.1318-94e-4 0.0527-0.0243 0.1043-0.0449 0.1543-0.0121 0.0292-0.0285 0.0559-0.044 0.083-0.0324 0.057-0.0695 0.1126-0.1181 0.1612l-5 5c-0.2929 0.2929-0.7677 0.2929-1.0606 0s-0.2929-0.7677 0-1.0606L16.9395 10.5H6.75C6.3358 10.5 6 10.1642 6 9.75 6 9.3358 6.3358 9 6.75 9h10.1895l-3.7198-3.7197c-0.2929-0.2929-0.2929-0.7677 0-1.0606z" />
</svg>