<svg viewBox="0 0 19 19" fill="none" width="32" height="32" xmlns="http://www.w3.org/2000/svg" xmlns:xlink="http://www.w3.org/1999/xlink">
    <path fill="currentColor" d="M17.75 0c0.045 0 0.089 41e-4 0.1318 0.0117 56e-4 1e-3 0.0111 18e-4 0.0166 29e-4 0.0134 27e-4 0.026 84e-4 0.0391 0.0118 0.0332 85e-4 0.0666 0.017 0.0986 0.0302 0.0292 0.0121 0.0559 0.0285 0.083 0.044 0.0572 0.0325 0.1125 0.0704 0.1612 0.1191 0.0484 0.0484 0.0857 0.1035 0.1181 0.1602 0.0156 0.0271 0.0319 0.0539 0.044 0.083 0.0207 0.05 0.0355 0.1017 0.0449 0.1543C18.495 0.6603 18.5 0.7046 18.5 0.75v5c0 0.4142-0.3358 0.75-0.75 0.75S17 6.1642 17 5.75V2.5606l-4.9775 4.9765C12.9464 8.6919 13.5 10.156 13.5 11.75c0 3.7279-3.0221 6.75-6.75 6.75C3.0221 18.5 0 15.4779 0 11.75 0 8.0221 3.0221 5 6.75 5c1.5935 0 3.0572 0.5531 4.2119 1.4766L15.9395 1.5H12.75C12.3358 1.5 12 1.1642 12 0.75S12.3358 0 12.75 0zM6.75 6.5c-2.8995 0-5.25 2.3505-5.25 5.25S3.8505 17 6.75 17 12 14.6495 12 11.75 9.6495 6.5 6.75 6.5z" />
</svg>