<svg viewBox="0 0 20 22" fill="none" width="29.090909" height="32" xmlns="http://www.w3.org/2000/svg" xmlns:xlink="http://www.w3.org/1999/xlink">
    <path fill="currentColor" clip-rule="evenodd" d="M10.8317 19.375c0.2071-0.3585 0.6657-0.4814 1.0244-0.2744 0.3584 0.2072 0.4813 0.6658 0.2744 1.0244-0.2413 0.4178-0.5881 0.7655-1.0059 1.0068-0.4178 0.2412-0.8926 0.368-1.375 0.3682-0.4824 0-0.9571-0.1271-1.375-0.3682-0.4179-0.2413-0.7654-0.5889-1.0068-1.0068-0.2071-0.3587-0.0843-0.8173 0.2744-1.0244 0.3587-0.2069 0.8174-0.0842 1.0244 0.2744 0.1097 0.1899 0.2681 0.3474 0.458 0.457C9.3146 19.9416 9.5304 20 9.7496 20c0.2191-2e-4 0.4353-0.0584 0.625-0.168s0.3475-0.2673 0.4571-0.457zM9.7487 0c1.7901 0 3.5076 0.7108 4.7734 1.9766 1.2658 1.2658 1.9766 2.9832 1.9766 4.7734 0 2.171 0.3404 3.5444 0.7998 4.5166 0.46 0.9735 1.0631 1.6022 1.7285 2.2881 55e-4 57e-4 0.0112 0.0117 0.0166 0.0176 0.2282 0.2508 0.3783 0.5627 0.4326 0.8974 0.0543 0.3348 0.0102 0.6782-0.127 0.9883-0.1371 0.31-0.3613 0.5738-0.6455 0.7588-0.2485 0.1617-0.5337 0.257-0.8281 0.2783L17.7487 16.5h-16c-0.3391-2e-4-0.6711-0.099-0.9551-0.2842-0.2841-0.1853-0.5087-0.4494-0.6455-0.7597-0.1368-0.3103-0.1797-0.6537-0.125-0.9883 0.0547-0.3348 0.205-0.6469 0.4336-0.8975l0.0156-0.0166c0.6641-0.6856 1.2675-1.3143 1.7275-2.2881C2.659 10.2935 2.9987 8.9205 2.9987 6.75c0-1.7902 0.7116-3.5076 1.9775-4.7734C6.242 0.711 7.9587 1e-4 9.7487 0zM9.7487 1.5c-1.3923 1e-4-2.7275 0.5536-3.712 1.5381-0.9844 0.9845-1.538 2.3196-1.538 3.7119 0 2.3279-0.3655 3.9327-0.9434 5.1562-0.5726 1.2121-1.3312 1.9945-1.9902 2.6749L1.525 14.6406c-0.0106 0.0217-0.0185 0.0453-0.0224 0.0694-78e-4 0.0476-9e-4 0.0964 0.0185 0.1406 0.0195 0.0442 0.0514 0.0819 0.0918 0.1084C1.6535 14.9854 1.7012 15 1.7496 15h16c0.0481-1e-4 0.0954-0.0139 0.1358-0.04 0.0405-0.0264 0.0732-0.0643 0.0928-0.1084 0.0195-0.0443 0.0253-0.0938 0.0175-0.1416-77e-4-0.0477-0.029-0.0922-0.0615-0.128-0.6604-0.6807-1.4197-1.4633-1.9922-2.6748-0.5782-1.2237-0.9433-2.8292-0.9433-5.1572 0-1.3922-0.5529-2.7274-1.5372-3.7119C12.477 2.0536 11.141 1.5 9.7487 1.5z" fill-rule="evenodd" />
</svg>