<svg viewBox="0 0 22 22" fill="none" width="32" height="32" xmlns="http://www.w3.org/2000/svg" xmlns:xlink="http://www.w3.org/1999/xlink">
    <path fill="currentColor" clip-rule="evenodd" d="M17.9315 0c0.9464 2e-4 1.8543 0.3766 2.5234 1.0459 0.6689 0.6693 1.0451 1.5771 1.045 2.5234-2e-4 0.8874-0.331 1.741-0.9239 2.3955l-0.122 0.128-2.1006 2.0996c-0.0223 0.0303-0.0458 0.0604-0.0733 0.0879-0.0265 0.0265-0.0556 0.0495-0.0849 0.0713L7.1063 19.4424c-0.2789 0.2779-0.6137 0.4929-0.9814 0.6299L5.9647 20.126 1.6112 21.4463h-2e-3c-0.2159 0.0648-0.4454 0.0705-0.664 0.0156-0.2188-0.055-0.4185-0.1688-0.5782-0.3281-0.1595-0.1593-0.2736-0.3587-0.3291-0.5772-0.0553-0.2186-0.0498-0.4489 0.0147-0.665l1e-3-29e-4 1.3203-4.3526 1e-3-19e-4c0.1321-0.4308 0.3684-0.8225 0.6875-1.1406l11.081-11.085c0.0227-0.0311 0.0481-0.0608 0.0762-0.0889 0.0274-0.0274 0.0566-0.0519 0.0869-0.0742l2.1006-2.1006C16.0765 0.3757 16.985-1e-4 17.9315 0zM3.1219 15.4551c-0.1445 0.1441-0.2533 0.3216-0.3134 0.5166l9e-4 1e-3-1.1855 3.9013 3.9043-1.1836c0.1956-0.0595 0.3746-0.1661 0.5195-0.3105L16.6825 7.7432 13.7567 4.8174zM17.9315 1.5c-0.5485-1e-4-1.0749 0.2178-1.4629 0.6055l-1.6514 1.6513 2.9258 2.9258 1.6504-1.6504c0.3879-0.3878 0.6062-0.9144 0.6065-1.4629 0-0.5486-0.2187-1.0748-0.6065-1.4628C19.0056 1.7186 18.48 1.5002 17.9315 1.5z" fill-rule="evenodd" />
</svg>