<svg viewBox="0 0 22 22" fill="none" width="32" height="32" xmlns="http://www.w3.org/2000/svg" xmlns:xlink="http://www.w3.org/1999/xlink">
    <path fill="currentColor" clip-rule="evenodd" d="M7.7445 8c0.7548 1e-4 1.5027 0.1486 2.2001 0.4375 0.6976 0.289 1.3314 0.7132 1.8653 1.2471 0.5338 0.5338 0.9581 1.1677 1.2471 1.8652 0.2888 0.6975 0.4375 1.4453 0.4375 2.2002v3.5c-4e-4 1.0156-0.3646 1.9982-1.0264 2.7686-0.6618 0.7703-1.5781 1.2781-2.582 1.4316-1.004 0.1534-2.03-0.0582-2.8916-0.5957-0.8616-0.5376-1.5021-1.3659-1.8057-2.335l-1e-3-29e-4c-0.3537-1.1409-1.0697-1.8568-2.206-2.21l-2e-3-9e-4c-0.9685-0.3035-1.7963-0.9439-2.334-1.8047-0.5376-0.861-0.7502-1.8861-0.5976-2.8897 0.1526-1.0036 0.6603-1.9196 1.4297-2.582C2.247 8.3673 3.2277 8.0019 4.2425 8zM4.0003 9.5117C3.4322 9.5636 2.8918 9.7912 2.4564 10.166c-0.4978 0.4286-0.8261 1.0215-0.9248 1.6709-0.0987 0.6491 0.0381 1.3122 0.3857 1.8692 0.3479 0.5569 0.8841 0.9716 1.5107 1.1679 1.609 0.5001 2.6917 1.5865 3.1915 3.1973l0.0839 0.2305c0.2186 0.5274 0.5972 0.9759 1.085 1.2802 0.5575 0.3478 1.2215 0.485 1.8711 0.3858 0.6495-0.0993 1.2427-0.4284 1.6709-0.9268 0.3746-0.4361 0.6012-0.9773 0.6523-1.5459l0.0118-0.2451v-3.5c0-0.558-0.1108-1.1104-0.3243-1.626-0.2135-0.5155-0.5264-0.9843-0.9209-1.3789s-0.8634-0.7083-1.3789-0.9219C8.8551 9.6098 8.3023 9.5001 7.7445 9.5H4.2454zM18.7435 12c1.5188 0 2.75 1.2312 2.75 2.75s-1.2312 2.75-2.75 2.75c-1.5186-2e-4-2.75-1.2313-2.75-2.75s1.2314-2.7498 2.75-2.75zM18.7435 13.5c-0.6902 2e-4-1.25 0.5598-1.25 1.25s0.5598 1.2498 1.25 1.25c0.6903 0 1.25-0.5596 1.25-1.25s-0.5597-1.25-1.25-1.25zM16.7435 4c1.5188 0 2.75 1.2312 2.75 2.75s-1.2312 2.75-2.75 2.75c-1.5186-2e-4-2.75-1.2313-2.75-2.75s1.2314-2.7498 2.75-2.75zM16.7435 5.5c-0.6902 2e-4-1.25 0.5598-1.25 1.25s0.5598 1.2498 1.25 1.25c0.6903 0 1.25-0.5596 1.25-1.25s-0.5597-1.25-1.25-1.25zM9.7435 0c1.5188 0 2.75 1.2312 2.75 2.75s-1.2312 2.75-2.75 2.75c-1.5186-2e-4-2.75-1.2313-2.75-2.75 0-1.5187 1.2314-2.7498 2.75-2.75zM9.7435 1.5c-0.6902 2e-4-1.25 0.5598-1.25 1.25 0 0.6902 0.5598 1.2498 1.25 1.25 0.6903 0 1.25-0.5596 1.25-1.25s-0.5597-1.25-1.25-1.25z" fill-rule="evenodd" />
</svg>