<svg viewBox="0 0 22 22" fill="none" width="32" height="32" xmlns="http://www.w3.org/2000/svg" xmlns:xlink="http://www.w3.org/1999/xlink">
    <path fill="currentColor" d="M10.75 0C16.6871 0 21.5 4.8129 21.5 10.75c0 5.9371-4.8129 10.75-10.75 10.75C4.8129 21.5 0 16.6871 0 10.75 0 4.8129 4.8129 0 10.75 0zM10.75 13.5c-1.3924 0-2.7273 0.5535-3.7119 1.5381-0.8958 0.8958-1.4335 2.0817-1.5235 3.3369C7.0035 19.3992 8.8063 20 10.75 20c1.9434 0 3.7457-0.6011 5.2344-1.625-0.09-1.2552-0.6267-2.4412-1.5225-3.3369C13.4773 14.0535 12.1424 13.5 10.75 13.5zM10.75 1.5c-5.1086 0-9.25 4.1414-9.25 9.25 0 2.5339 1.0195 4.8293 2.6699 6.5 0.2802-1.2298 0.9006-2.3674 1.8067-3.2734 0.5813-0.5813 1.2581-1.0449 1.9931-1.377C6.777 11.7367 6 10.3347 6 8.75 6 6.1267 8.1267 4 10.75 4c2.6234 0 4.75 2.1266 4.75 4.75 0 1.585-0.7776 2.9867-1.9707 3.8496 0.7354 0.3321 1.4126 0.7954 1.9941 1.377 0.906 0.906 1.5255 2.0437 1.8057 3.2734C18.9798 15.5793 20 13.2842 20 10.75c0-5.1086-4.1414-9.25-9.25-9.25zM10.75 5.5C8.9551 5.5 7.5 6.9551 7.5 8.75 7.5 10.5449 8.9551 12 10.75 12 12.5449 12 14 10.5449 14 8.75c0-1.7949-1.4551-3.25-3.25-3.25z" />
</svg>