<svg viewBox="0 0 20 20" fill="none" width="32" height="32" xmlns="http://www.w3.org/2000/svg" xmlns:xlink="http://www.w3.org/1999/xlink">
    <path fill="currentColor" d="M8.75 0c4.8325 0 8.75 3.9175 8.75 8.75 0 2.1462-0.7743 4.1106-2.0566 5.6328l3.8369 3.8369c0.2925 0.293 0.2927 0.7678 0 1.0606-0.2928 0.2927-0.7676 0.2925-1.0606 0l-3.8369-3.8369C12.8606 16.7257 10.8962 17.5 8.75 17.5 3.9175 17.5 0 13.5825 0 8.75S3.9175 0 8.75 0zM8.75 1.5C4.7459 1.5 1.5 4.7459 1.5 8.75 1.5 12.7541 4.7459 16 8.75 16c1.9655 0 3.7469-0.7837 5.0527-2.0537 0.0203-0.0267 0.0431-0.0518 0.0674-0.0762 0.0244-0.0243 0.0495-0.0471 0.0762-0.0674C15.2163 12.4969 16 10.7155 16 8.75 16 4.7459 12.7541 1.5 8.75 1.5z" />
</svg>