<svg viewBox="0 0 22 22" fill="none" width="32" height="32" xmlns="http://www.w3.org/2000/svg" xmlns:xlink="http://www.w3.org/1999/xlink">
    <path fill="currentColor" clip-rule="evenodd" d="M19.8451 0.0706c0.2194-0.0769 0.4556-0.0916 0.6826-0.041 0.1732 0.0386 0.3357 0.1131 0.4766 0.2187l0.1338 0.1162 0.1152 0.1328c0.0706 0.0941 0.1274 0.1977 0.169 0.3077l0.0508 0.1689 0.0263 0.1748c0.0133 0.1713-0.0113 0.3435-0.0683 0.5068l19e-4 1e-3-6.5 19c-0.0827 0.2411-0.2379 0.4518-0.4433 0.6026-0.2055 0.1507-0.4523 0.2355-0.7071 0.2421-0.2549 65e-4-0.5067-0.0649-0.7197-0.205-0.1596-0.1051-0.2923-0.2452-0.3887-0.4082l-0.084-0.1709-3.1806-7.9327c-0.0622-0.1535-0.154-0.2944-0.2705-0.4121-15e-4-14e-4-34e-4-24e-4-49e-4-39e-4-16e-4-16e-4-33e-4-32e-4-49e-4-49e-4-0.0884-0.0873-0.1891-0.1613-0.2988-0.2187l-0.1153-0.0527-7.9306-3.1797c-0.2364-0.095-0.4381-0.2609-0.5781-0.4737C0.0664 8.2258-61e-4 7.9748 4e-4 7.72l0.0195-0.1895C0.0535 7.344 0.1295 7.1662 0.2426 7.012l0.124-0.1436c0.1341-0.1341 0.2976-0.2367 0.4785-0.2988zM10.6498 11.9124c0.0115 0.0206 0.0242 0.0406 0.0352 0.0615l0.1172 0.252 2.9287 7.3056 5.5625-16.2617zM1.9682 7.7698l7.3056 2.9297c0.1086 0.0434 0.2129 0.0957 0.3145 0.1523l8.6504-8.6484z" fill-rule="evenodd" />
</svg>