<svg viewBox="0 0 20 20" fill="none" width="32" height="32" xmlns="http://www.w3.org/2000/svg" xmlns:xlink="http://www.w3.org/1999/xlink">
    <path fill="currentColor" d="M6.75 11c0.9665 0 1.75 0.7835 1.75 1.75v5c0 0.9665-0.7835 1.75-1.75 1.75h-5C0.7835 19.5 0 18.7165 0 17.75v-5C0 11.7835 0.7835 11 1.75 11zM17.75 11c0.9665 0 1.75 0.7835 1.75 1.75v5c0 0.9665-0.7835 1.75-1.75 1.75h-5c-0.9665 0-1.75-0.7835-1.75-1.75v-5c0-0.9665 0.7835-1.75 1.75-1.75zM1.75 12.5c-0.1381 0-0.25 0.1119-0.25 0.25v5C1.5 17.8881 1.6119 18 1.75 18h5C6.8881 18 7 17.8881 7 17.75v-5c0-0.1381-0.1119-0.25-0.25-0.25zM12.75 12.5c-0.1381 0-0.25 0.1119-0.25 0.25v5c0 0.1381 0.1119 0.25 0.25 0.25h5c0.1381 0 0.25-0.1119 0.25-0.25v-5c0-0.1381-0.1119-0.25-0.25-0.25zM6.75 0C7.7165 0 8.5 0.7835 8.5 1.75v5c0 0.9665-0.7835 1.75-1.75 1.75h-5C0.7835 8.5 0 7.7165 0 6.75v-5C0 0.7835 0.7835 0 1.75 0zM17.75 0c0.9665 0 1.75 0.7835 1.75 1.75v5c0 0.9665-0.7835 1.75-1.75 1.75h-5C11.7835 8.5 11 7.7165 11 6.75v-5C11 0.7835 11.7835 0 12.75 0zM1.75 1.5C1.6119 1.5 1.5 1.6119 1.5 1.75v5C1.5 6.8881 1.6119 7 1.75 7h5C6.8881 7 7 6.8881 7 6.75v-5C7 1.6119 6.8881 1.5 6.75 1.5zM12.75 1.5c-0.1381 0-0.25 0.1119-0.25 0.25v5C12.5 6.8881 12.6119 7 12.75 7h5C17.8881 7 18 6.8881 18 6.75v-5c0-0.1381-0.1119-0.25-0.25-0.25z" />
</svg>