<svg viewBox="0 0 22 16" fill="none" width="44" height="32" xmlns="http://www.w3.org/2000/svg" xmlns:xlink="http://www.w3.org/1999/xlink">
    <path fill="currentColor" d="M18.75 0c0.7293 0 1.4286 0.2899 1.9443 0.8057C21.2101 1.3214 21.5 2.0207 21.5 2.75v2c0 0.4142-0.3358 0.75-0.75 0.75-0.5967 0-1.1689 0.2372-1.5908 0.6592C18.7372 6.5811 18.5 7.1533 18.5 7.75s0.2372 1.1689 0.6592 1.5908C19.5811 9.7628 20.1533 10 20.75 10c0.4142 0 0.75 0.3358 0.75 0.75v2c0 0.7293-0.2899 1.4286-0.8057 1.9443C20.1786 15.2101 19.4793 15.5 18.75 15.5h-16c-0.7294 0-1.4286-0.2899-1.9443-0.8057C0.2899 14.1786 0 13.4793 0 12.75v-2C0 10.3358 0.3358 10 0.75 10c0.5967 0 1.1689-0.2372 1.5908-0.6592C2.7628 8.9189 3 8.3467 3 7.75S2.7628 6.5811 2.3408 6.1592C1.9189 5.7372 1.3467 5.5 0.75 5.5 0.3358 5.5 0 5.1642 0 4.75v-2c0-0.7294 0.2899-1.4286 0.8057-1.9443C1.3214 0.2899 2.0207 0 2.75 0zM2.75 1.5c-0.3315 0-0.6494 0.1318-0.8838 0.3662C1.6318 2.1006 1.5 2.4185 1.5 2.75v1.3252c0.7151 0.146 1.3775 0.4996 1.9014 1.0234C4.1046 5.8019 4.5 6.7554 4.5 7.75s-0.3954 1.9481-1.0986 2.6514C2.8776 10.9251 2.2151 11.2778 1.5 11.4238V12.75c0 0.3315 0.1318 0.6494 0.3662 0.8838C2.1006 13.8682 2.4185 14 2.75 14H11v-1.25c0-0.4142 0.3358-0.75 0.75-0.75s0.75 0.3358 0.75 0.75V14h6.25c0.3315 0 0.6494-0.1318 0.8838-0.3662S20 13.0815 20 12.75v-1.3262c-0.7151-0.146-1.3776-0.4987-1.9014-1.0224C17.3954 9.6981 17 8.7446 17 7.75s0.3954-1.9481 1.0986-2.6514C18.6224 4.5748 19.2849 4.2212 20 4.0752V2.75c0-0.3315-0.1318-0.6494-0.3662-0.8838C19.3994 1.6318 19.0815 1.5 18.75 1.5H12.5v1.25c0 0.4142-0.3358 0.75-0.75 0.75S11 3.1642 11 2.75V1.5zM11.75 6c0.4142 0 0.75 0.3358 0.75 0.75v2c0 0.4142-0.3358 0.75-0.75 0.75S11 9.1642 11 8.75v-2C11 6.3358 11.3358 6 11.75 6z" />
</svg>