<svg viewBox="0 0 22 16" fill="none" width="44" height="32" xmlns="http://www.w3.org/2000/svg" xmlns:xlink="http://www.w3.org/1999/xlink">
    <path fill="currentColor" d="M14.75 0c1.357 0 2.5675 0.9079 3.0352 2.0938l0.083 0.2412 39e-4 0.0127 1.0224 3.6543c0.2174 53e-4 0.432 0.0497 0.6328 0.1337 0.2138 0.0895 0.4076 0.2208 0.5704 0.3858l0.8984 0.9101C21.3188 7.759 21.4999 8.2004 21.5 8.6602V11.75c0 0.4641-0.1845 0.9091-0.5127 1.2373S20.2141 13.5 19.75 13.5h-2.3564c-0.3268 1.1539-1.3851 2-2.6436 2s-2.3168-0.8461-2.6436-2H8.3936c-0.3268 1.1539-1.3851 2-2.6436 2s-2.3168-0.8461-2.6436-2H1.75c-0.4641 0-0.9091-0.1845-1.2373-0.5127S0 12.2141 0 11.75v-9c0-0.7294 0.2899-1.4286 0.8057-1.9443C1.3214 0.2899 2.0207 0 2.75 0zM5.75 11.5c-0.6904 0-1.25 0.5596-1.25 1.25S5.0596 14 5.75 14 7 13.4404 7 12.75 6.4404 11.5 5.75 11.5zM14.75 11.5c-0.6904 0-1.25 0.5596-1.25 1.25S14.0596 14 14.75 14 16 13.4404 16 12.75s-0.5596-1.25-1.25-1.25zM2.75 1.5c-0.3315 0-0.6494 0.1318-0.8838 0.3662C1.6318 2.1006 1.5 2.4185 1.5 2.75v9c0 0.0663 0.0264 0.1299 0.0732 0.1768C1.6201 11.9736 1.6837 12 1.75 12h1.3565c0.3267-1.1539 1.385-2 2.6435-2s2.3168 0.8461 2.6435 2h3.7129c0.3268-1.1539 1.3851-2 2.6436-2s2.3168 0.8461 2.6436 2H19.75c0.0663 0 0.1299-0.0264 0.1768-0.0732C19.9736 11.8799 20 11.8163 20 11.75V8.6602c0-0.0657-0.0261-0.129-0.0723-0.1758l-0.8974-0.9092c-0.0233-0.0236-0.0515-0.0429-0.0821-0.0557C18.9177 7.5068 18.8847 7.5 18.8516 7.5H12.75c-0.4641 0-0.9091-0.1845-1.2373-0.5127S11 6.2141 11 5.75V1.5zM12.5 5.75c0 0.0663 0.0264 0.1299 0.0732 0.1768C12.6201 5.9736 12.6837 6 12.75 6h4.5869l-0.9053-3.2344-0.0449-0.1299C16.1321 1.9979 15.4554 1.5 14.75 1.5H12.5z" />
</svg>