<svg viewBox="0 0 20 20" fill="none" width="32" height="32" xmlns="http://www.w3.org/2000/svg" xmlns:xlink="http://www.w3.org/1999/xlink">
    <path fill="currentColor" d="M0.75 14c0.4142 0 0.75 0.3358 0.75 0.75v2c0 0.3315 0.1318 0.6494 0.3662 0.8838C2.1006 17.8682 2.4185 18 2.75 18h2c0.4142 0 0.75 0.3358 0.75 0.75S5.1642 19.5 4.75 19.5h-2c-0.7294 0-1.4286-0.2899-1.9443-0.8057C0.2899 18.1786 0 17.4793 0 16.75v-2C0 14.3358 0.3358 14 0.75 14zM18.75 14c0.4142 0 0.75 0.3358 0.75 0.75v2c0 0.7293-0.2899 1.4286-0.8057 1.9443C18.1786 19.2101 17.4793 19.5 16.75 19.5h-2c-0.4142 0-0.75-0.3358-0.75-0.75S14.3358 18 14.75 18h2c0.3315 0 0.6494-0.1318 0.8838-0.3662S18 17.0815 18 16.75v-2c0-0.4142 0.3358-0.75 0.75-0.75zM9.75 4.0039c1.639 0 3.2411 0.4882 4.6016 1.4024 1.2753 0.857 2.2846 2.0518 2.916 3.4482l0.1211 0.2822 0.0136 0.0362c0.1306 0.3736 0.1306 0.7806 0 1.1542-42e-4 0.012-88e-4 0.0244-0.0136 0.0362-0.6193 1.5175-1.6768 2.8163-3.0371 3.7305-1.3605 0.9141-2.9626 1.4023-4.6016 1.4023-1.639 0-3.2412-0.4882-4.6016-1.4023-1.3603-0.9142-2.4178-2.2131-3.0371-3.7305-48e-4-0.0118-94e-4-0.0242-0.0136-0.0362-0.1305-0.3736-0.1305-0.7806 0-1.1542l0.0136-0.0362c0.6193-1.5175 1.6768-2.8163 3.0371-3.7305C6.5089 4.4921 8.111 4.0039 9.75 4.0039zM9.75 5.5039c-1.341 0-2.6516 0.3995-3.7646 1.1475-1.104 0.7418-1.9643 1.7929-2.4727 3.0214-0.0161 0.0496-0.0166 0.1028-1e-3 0.1524 0.5083 1.2294 1.3691 2.2812 2.4737 3.0234 1.113 0.748 2.4236 1.1475 3.7646 1.1475 1.341 0 2.6516-0.3995 3.7646-1.1475 1.1045-0.7421 1.9644-1.7941 2.4727-3.0234 0.0158-0.0498 0.0153-0.1026-1e-3-0.1524-0.5084-1.2283-1.3678-2.2797-2.4717-3.0214-1.113-0.748-2.4236-1.1475-3.7646-1.1475zM9.75 7.75c1.1046 0 2 0.8954 2 2 0 1.1046-0.8954 2-2 2-1.1046 0-2-0.8954-2-2 0-1.1046 0.8954-2 2-2zM4.75 0C5.1642 0 5.5 0.3358 5.5 0.75S5.1642 1.5 4.75 1.5h-2c-0.3315 0-0.6494 0.1318-0.8838 0.3662C1.6318 2.1006 1.5 2.4185 1.5 2.75v2c0 0.4142-0.3358 0.75-0.75 0.75S0 5.1642 0 4.75v-2c0-0.7294 0.2899-1.4286 0.8057-1.9443C1.3214 0.2899 2.0207 0 2.75 0zM16.75 0c0.7293 0 1.4286 0.2899 1.9443 0.8057C19.2101 1.3214 19.5 2.0207 19.5 2.75v2c0 0.4142-0.3358 0.75-0.75 0.75S18 5.1642 18 4.75v-2c0-0.3315-0.1318-0.6494-0.3662-0.8838C17.3994 1.6318 17.0815 1.5 16.75 1.5h-2C14.3358 1.5 14 1.1642 14 0.75S14.3358 0 14.75 0z" />
</svg>