<svg viewBox="0 0 22 22" fill="none" width="32" height="32" xmlns="http://www.w3.org/2000/svg" xmlns:xlink="http://www.w3.org/1999/xlink">
    <path fill="currentColor" clip-rule="evenodd" d="M4.5008 2.0027C6.5623 0.53 9.0778-0.1672 11.6033 0.034c2.5254 0.2012 4.8988 1.2879 6.7012 3.0683 1.8022 1.7805 2.9184 4.1403 3.1504 6.6631 0.2319 2.5227-0.4346 5.0467-1.8819 7.126-1.4473 2.0792-3.5829 3.5808-6.0293 4.2392-2.432 0.6546-5.0162 0.4328-7.3017-0.623-0.2103-0.0777-0.4378-0.0969-0.6582-0.0567l-3.3672 0.9854c-58e-4 17e-4-0.0118 33e-4-0.0176 49e-4-0.288 0.0764-0.5911 0.0782-0.8799 49e-4-0.2888-0.0734-0.5549-0.2192-0.7715-0.4239-0.2165-0.2046-0.3771-0.4619-0.4668-0.7461-0.0896-0.2842-0.1049-0.587-0.0449-0.8789 55e-4-0.0269 0.013-0.0539 0.0215-0.08l1.0488-3.2432c0.0471-0.2347 0.0268-0.478-0.0605-0.7012-1.0822-2.2716-1.3344-4.8515-0.71-7.29 0.6285-2.4542 2.1037-4.6074 4.1651-6.0801zM11.4842 1.5291C9.3111 1.356 7.1467 1.9562 5.3728 3.2234 3.5991 4.4906 2.3297 6.3432 1.7888 8.4549c-0.5406 2.1116-0.3183 4.3469 0.628 6.3105 77e-4 0.0161 0.0149 0.0332 0.0215 0.0498 0.202 0.5099 0.2477 1.0688 0.1298 1.6045-51e-4 0.0234-0.0121 0.0466-0.0195 0.0693l-1.0459 3.2295c-45e-4 0.0357-2e-3 0.0721 88e-4 0.1065 0.0128 0.0403 0.0357 0.0773 0.0664 0.1064 0.0309 0.0291 0.0693 0.0501 0.1104 0.0606 0.0399 0.0101 0.082 99e-4 0.122 0l3.3985-0.9932 0.0644-0.0156c0.4425-0.0878 0.8991-0.0652 1.3291 0.0644l0.1826 0.0615 0.0508 0.0215c1.9752 0.9224 4.2134 1.1183 6.3184 0.5518 2.1049-0.5666 3.9421-1.8594 5.1875-3.6484 1.2452-1.789 1.8186-3.9604 1.6191-6.1309-0.1996-2.1706-1.1594-4.2014-2.7099-5.7334-1.5509-1.532-3.5936-2.4675-5.7666-2.6406zM8.2488 5.7498c0.2652 0 0.5205 0.1054 0.708 0.2929 0.1873 0.1875 0.292 0.442 0.292 0.7071v1.5c0 0.1551-0.0361 0.3085-0.1055 0.4472-0.0694 0.1387-0.1699 0.2595-0.2939 0.3526L8.615 9.2254c-0.0916 0.07-0.156 0.1699-0.1826 0.2822-0.0265 0.1123-0.0134 0.2303 0.0371 0.334 0.6833 1.3878 1.8067 2.5108 3.1953 3.1924 0.1032 0.0473 0.2199 0.0577 0.3301 0.0302s0.2085-0.0922 0.2773-0.1826l0.1768-0.2324c0.0931-0.1242 0.2147-0.2245 0.3535-0.294 0.1386-0.0692 0.2913-0.1054 0.4463-0.1054h1.5c0.2652 0 0.5205 0.1054 0.708 0.2929 0.1873 0.1875 0.292 0.442 0.292 0.7071v1.5c-1e-4 0.265-0.1046 0.5195-0.292 0.707-0.1875 0.1875-0.4428 0.293-0.708 0.293-2.3868-2e-4-4.6756-0.949-6.3633-2.6367-1.6877-1.6878-2.6366-3.9765-2.6367-6.3633 0-0.2651 0.1057-0.5196 0.293-0.7071 0.1874-0.1874 0.442-0.2928 0.707-0.2929z" fill-rule="evenodd" />
</svg>